<?xml version="1.0" encoding="utf-8"?>
<!-- Generator: Adobe Illustrator 16.0.0, SVG Export Plug-In . SVG Version: 6.00 Build 0)  -->
<!DOCTYPE svg PUBLIC "-//W3C//DTD SVG 1.1//EN" "http://www.w3.org/Graphics/SVG/1.1/DTD/svg11.dtd">
<svg version="1.1" id="Capa_1" xmlns="http://www.w3.org/2000/svg" xmlns:xlink="http://www.w3.org/1999/xlink" x="0px" y="0px"
	 width="512px" height="512px" viewBox="0 0 512 512" enable-background="new 0 0 512 512" xml:space="preserve">
<g>
	<path fill="#59595E" d="M378.179,261.855c-12.151,0-21.46,3.711-27.931,11.127c-6.47,7.418-9.702,17.908-9.702,31.479
		c0,13.729,3.588,24.303,10.77,31.717c7.18,7.42,16.841,11.123,28.994,11.123c6.468,0,11.953-0.863,16.45-2.604
		c4.497-1.732,8.795-3.703,12.9-5.916c2.683,2.213,4.769,4.852,6.272,7.93c1.498,3.078,2.247,6.668,2.247,10.768
		c0,6.475-3.593,11.953-10.768,16.453c-7.183,4.494-18.109,6.744-32.784,6.744c-10.572,0-20.513-1.5-29.822-4.498
		c-9.313-2.996-17.438-7.609-24.379-13.848c-6.945-6.23-12.427-14.119-16.45-23.668c-4.024-9.543-6.035-20.945-6.035-34.201
		c0-12.311,1.931-23.154,5.799-32.543c3.865-9.389,9.15-17.316,15.859-23.79c6.702-6.469,14.553-11.362,23.55-14.674
		c8.992-3.313,18.618-4.972,28.877-4.972c14.515,0,25.758,2.368,33.727,7.102c7.968,4.735,11.953,10.811,11.953,18.227
		c0,4.105-1.026,7.652-3.076,10.65c-2.053,2.998-4.419,5.365-7.103,7.102c-4.104-2.682-8.481-4.973-13.135-6.867
		C389.738,262.805,384.333,261.855,378.179,261.855z"/>
	<path fill="#59595E" d="M470.25,336.887c0,4.107,1.302,7.023,3.908,8.76c2.603,1.736,6.271,2.604,11.006,2.604
		c2.366,0,4.811-0.197,7.335-0.592c2.521-0.393,4.735-0.906,6.63-1.537c1.42,1.734,2.639,3.668,3.67,5.797
		c1.022,2.129,1.535,4.697,1.535,7.693c0,5.996-2.246,10.887-6.746,14.676c-4.496,3.783-12.424,5.678-23.784,5.678
		c-13.888,0-24.581-3.156-32.074-9.467c-7.495-6.307-11.244-16.57-11.244-30.768V238.424c1.737-0.473,4.22-0.983,7.458-1.537
		c3.234-0.553,6.665-0.83,10.297-0.83c6.942,0,12.342,1.226,16.214,3.667c3.865,2.452,5.796,7.616,5.796,15.505v15.148h31.008
		c0.947,1.74,1.853,3.906,2.721,6.51c0.866,2.604,1.304,5.486,1.304,8.641c0,5.523-1.223,9.508-3.671,11.951
		c-2.447,2.451-5.719,3.67-9.819,3.67H470.25V336.887z"/>
	<g>
		<g>
			<g>
				<path fill="#00B426" d="M358.905,437.223c-52.584,0.002-92.784-33.459-131.967-66.072
					c-55.335-46.053-107.606-89.563-197.921-46.594c-5.315,2.521-11.598,1.85-16.245-1.752C8.12,319.209,5.887,313.299,7,307.523
					c13.252-68.827,80.948-203.057,83.823-208.739c1.865-3.685,5.119-6.481,9.044-7.772
					c202.381-66.553,267.967,92.921,268.607,94.538c3.166,8.013-0.769,17.073-8.779,20.238c-8.008,3.152-17.035-0.755-20.219-8.736
					c-2.182-5.43-54.772-130.532-223.72-78.364c-11.196,22.615-51.846,106.297-70.539,165.83
					c91.016-29.453,149.499,19.23,201.681,62.658c48.244,40.15,89.922,74.82,152.66,50.637c8.05-3.102,17.068,0.906,20.162,8.938
					c3.101,8.039-0.903,17.072-8.938,20.168C392.123,434.115,374.936,437.223,358.905,437.223z"/>
			</g>
		</g>
		<g>
			<path fill="#00B426" d="M221.202,225.656c-3.895-3.101-7.373-6.08-10.44-8.942c-3.069-2.86-5.517-5.868-7.343-9.026
				c-1.826-3.152-2.918-6.527-3.276-10.126c-0.36-3.597,0.255-7.61,1.843-12.046c2.454-6.854,6.638-11.861,12.547-15.033
				c5.913-3.167,13.103-4.2,21.576-3.1l4.388-12.243c0.979,0.124,2.481,0.377,4.502,0.762c2.022,0.384,4.042,0.938,6.058,1.659
				c3.931,1.406,6.762,3.188,8.491,5.342c1.727,2.156,1.8,5.45,0.21,9.884l-0.705,1.964c5.958,3.047,10.395,6.453,13.309,10.225
				c2.913,3.772,3.608,7.774,2.093,12.005c-0.941,2.624-2.347,4.646-4.223,6.077c-1.877,1.434-3.907,2.498-6.09,3.192
				c-1.712-2.206-4.244-4.505-7.591-6.899c-3.351-2.395-7.243-4.385-11.675-5.973c-4.533-1.624-8.085-2.185-10.653-1.685
				c-2.567,0.504-4.194,1.711-4.882,3.624c-0.54,1.512-0.326,2.979,0.64,4.407c0.968,1.429,2.617,3.014,4.948,4.757l7.091,5.44
				c8.388,6.416,14.287,12.878,17.697,19.386c3.41,6.51,3.672,13.797,0.782,21.858c-2.452,6.849-6.708,11.894-12.752,15.128
				c-6.049,3.232-13.562,4.209-22.539,2.924l-4.33,12.092c-0.979-0.123-2.484-0.375-4.504-0.756
				c-2.025-0.389-4.043-0.939-6.058-1.66c-3.931-1.408-6.759-3.191-8.487-5.346c-1.73-2.154-1.801-5.447-0.214-9.883l0.542-1.514
				c-3.482-1.699-6.552-3.539-9.197-5.51c-2.646-1.971-4.801-4.051-6.462-6.24c-1.663-2.186-2.751-4.451-3.276-6.8
				c-0.522-2.343-0.351-4.729,0.515-7.147c1.049-2.923,2.796-5.107,5.249-6.562c2.454-1.45,4.886-2.372,7.301-2.758
				c2.023,3.228,4.792,6.382,8.295,9.454c3.503,3.074,7.672,5.48,12.509,7.21c4.938,1.772,8.687,2.259,11.244,1.47
				c2.555-0.791,4.194-2.191,4.915-4.208c0.725-2.015,0.466-3.841-0.766-5.478c-1.234-1.632-3.132-3.479-5.69-5.534L221.202,225.656
				z"/>
		</g>
	</g>
</g>
</svg>
