<?xml version="1.0" encoding="utf-8"?>
<!-- Generator: Adobe Illustrator 23.0.1, SVG Export Plug-In . SVG Version: 6.00 Build 0)  -->
<svg version="1.1" id="Capa_1" xmlns="http://www.w3.org/2000/svg" xmlns:xlink="http://www.w3.org/1999/xlink" x="0px" y="0px"
	 viewBox="0 0 100 79" style="enable-background:new 0 0 100 79;" xml:space="preserve">
<style type="text/css">
	.st0{fill:#59595E;}
	.st1{fill:#00CC60;}
</style>
<g>
	<g>
		<path class="st0" d="M73.5,42.1c-0.8,0-1.5,0.1-2.2,0.4c-0.7,0.3-1.4,0.5-1.8,1.1c-0.5,0.5-1,1.1-1.2,1.8s-0.4,1.5-0.4,2.5
			c0,1.9,0.5,3.4,1.6,4.4c1.1,1,2.5,1.5,4,1.5c1,0,1.8-0.1,2.5-0.3c0.7-0.3,1.2-0.4,1.8-0.7c0.7,0.4,1.1,1,1.4,1.4
			c0.3,0.5,0.4,1.1,0.4,1.8c0,1.2-0.5,2.2-1.8,3c-1.2,0.7-2.9,1.1-5.1,1.1c-1.9,0-3.7-0.3-5.3-0.8s-2.9-1.4-4.1-2.5
			c-1.1-1.1-2.1-2.3-2.6-3.7c-0.7-1.5-1-3-1-4.8c0-2.1,0.3-3.8,1-5.3c0.7-1.5,1.5-2.7,2.7-3.8c1.1-1,2.5-1.8,4-2.2
			c1.5-0.5,3.2-0.7,4.8-0.7c2.2,0,4,0.4,5.2,1.2s1.8,1.8,1.8,3.2c0,0.5-0.1,1.1-0.4,1.6c-0.3,0.5-0.5,1-1,1.4
			c-0.5-0.3-1.1-0.5-1.9-0.7C75.2,42.3,74.5,42.1,73.5,42.1z"/>
		<path class="st0" d="M90.1,51.4c0,0.8,0.3,1.4,0.8,1.8c0.5,0.3,1.2,0.5,2.2,0.5c0.4,0,1,0,1.5-0.1s1-0.1,1.4-0.3
			c0.3,0.3,0.5,0.7,0.7,1.1c0.1,0.4,0.3,1,0.3,1.5c0,1.2-0.4,2.2-1.4,2.9c-0.8,0.7-2.5,1.1-4.7,1.1c-2.7,0-4.8-0.7-6.3-1.9
			c-1.5-1.2-2.2-3.3-2.2-6V32.1c0.3-0.1,0.8-0.1,1.5-0.3s1.4-0.1,2.1-0.1c1.4,0,2.5,0.3,3.2,0.7c0.8,0.5,1.1,1.5,1.1,3v3h6.2
			c0.1,0.3,0.4,0.8,0.5,1.2c0.1,0.5,0.3,1.1,0.3,1.6c0,1.1-0.3,1.9-0.7,2.3c-0.5,0.5-1.1,0.7-1.9,0.7h-4.2v7.1H90.1z"/>
	</g>
	<g>
		<g>
			<g>
				<path class="st1" d="M72,74.7c-10.4,0-18.2-6.6-26-13c-10.8-9-21.2-17.7-38.9-9.2c-1.1,0.5-2.3,0.4-3.2-0.4
					c-1-0.7-1.4-1.9-1.1-3C5.5,35.5,18.7,9.1,19.3,8c0.4-0.7,1-1.2,1.8-1.5C60.9-6.6,73.8,24.7,73.9,25.1c0.7,1.6-0.1,3.4-1.8,4
					c-1.5,0.7-3.3-0.1-4-1.8c-0.4-0.8-10.8-25.5-44-15.2c-2.2,4.4-10.1,21-13.8,32.6C28.3,39,39.8,48.6,50.1,57
					c9.5,7.9,17.7,14.7,30,10c1.6-0.5,3.4,0.1,4,1.8c0.5,1.6-0.1,3.4-1.8,4C78.6,74.2,75.2,74.7,72,74.7z"/>
			</g>
		</g>
		<g>
			<path class="st1" d="M44.9,33.1c-0.8-0.5-1.5-1.2-2.1-1.8c-0.5-0.5-1.1-1.1-1.5-1.8c-0.4-0.7-0.5-1.2-0.7-2.1
				c-0.1-0.7,0-1.5,0.4-2.3c0.5-1.4,1.4-2.3,2.5-3c1.1-0.7,2.6-0.8,4.2-0.5l0.8-2.5c0.1,0,0.5,0.1,0.8,0.1c0.4,0.1,0.8,0.1,1.2,0.3
				c0.8,0.3,1.4,0.7,1.6,1.1c0.3,0.4,0.4,1.1,0,1.9l-0.1,0.4c1.2,0.5,2.1,1.2,2.6,2.1c0.5,0.7,0.7,1.5,0.4,2.3
				c-0.1,0.5-0.4,1-0.8,1.2c-0.4,0.3-0.8,0.5-1.2,0.7c-0.3-0.4-0.8-0.8-1.5-1.4c-0.7-0.4-1.4-0.8-2.3-1.2c-1-0.3-1.6-0.4-2.1-0.3
				c-0.5,0.1-0.8,0.3-1,0.7c-0.1,0.3,0,0.5,0.1,0.8c0.1,0.3,0.5,0.5,1,1l1.4,1.1c1.6,1.2,2.9,2.5,3.4,3.8c0.7,1.2,0.7,2.7,0.1,4.2
				c-0.5,1.4-1.4,2.3-2.5,3c-1.2,0.7-2.6,0.8-4.4,0.5l-0.8,2.3c-0.1,0-0.5-0.1-0.8-0.1c-0.4-0.1-0.8-0.1-1.2-0.3
				c-0.8-0.3-1.4-0.7-1.6-1.1s-0.4-1.1,0-1.9l0.1-0.3c-0.7-0.3-1.2-0.7-1.8-1.1c-0.5-0.4-1-0.8-1.2-1.2s-0.5-0.8-0.7-1.4
				c-0.1-0.4-0.1-1,0.1-1.4c0.3-0.5,0.5-1,1.1-1.2c0.5-0.3,1-0.4,1.4-0.5c0.4,0.7,1,1.2,1.6,1.9c0.7,0.5,1.5,1.1,2.5,1.4
				c1,0.4,1.6,0.4,2.2,0.3c0.5-0.1,0.8-0.4,1-0.8c0.1-0.4,0.1-0.8-0.1-1.1c-0.3-0.3-0.7-0.7-1.1-1.1L44.9,33.1z"/>
		</g>
	</g>
</g>
</svg>
